<svg width="25" height="25" viewBox="0 0 25 25" fill="none" xmlns="http://www.w3.org/2000/svg">
<path d="M18.246 8.5293C18.246 6.938 17.6138 5.41187 16.4886 4.28666C15.3634 3.16144 13.8373 2.5293 12.246 2.5293C10.6547 2.5293 9.12855 3.16144 8.00333 4.28666C6.87811 5.41187 6.24597 6.938 6.24597 8.5293C6.24597 15.5293 3.24597 17.5293 3.24597 17.5293H21.246C21.246 17.5293 18.246 15.5293 18.246 8.5293Z" fill="#B5B5B5"/>
<path d="M13.976 21.5293C13.8002 21.8324 13.5478 22.0839 13.2442 22.2588C12.9406 22.4337 12.5964 22.5258 12.246 22.5258C11.8956 22.5258 11.5514 22.4337 11.2478 22.2588C10.9441 22.0839 10.6918 21.8324 10.516 21.5293" stroke="#B5B5B5" stroke-width="2" stroke-linecap="round" stroke-linejoin="round"/>
</svg>
