<svg width="40" height="40" viewBox="0 0 40 40" fill="none" xmlns="http://www.w3.org/2000/svg">
<rect x="1" y="1" width="38" height="38" rx="19" stroke="#0C0B0B" stroke-width="2"/>
<path d="M20.2279 25.3333L20.2279 26.5404L21.0815 25.6869L24.4919 22.2765L24.1383 21.9229L24.4919 22.2765C24.5804 22.1879 24.724 22.1879 24.8125 22.2765C24.901 22.365 24.901 22.5086 24.8125 22.5971L20.1616 27.2481C20.073 27.3367 19.9295 27.3367 19.8409 27.2481L19.4874 27.6017L19.8409 27.2481L15.1901 22.5974C15.1456 22.5528 15.1235 22.4956 15.1235 22.4369C15.1235 22.3783 15.1456 22.321 15.1899 22.2766C15.2785 22.188 15.422 22.188 15.5106 22.2766L15.5106 22.2766L18.921 25.6869L19.7745 26.5404L19.7745 25.3333L19.7745 12.9121C19.7745 12.7869 19.8761 12.6854 20.0012 12.6854C20.1264 12.6854 20.2279 12.7869 20.2279 12.9121L20.2279 25.3333Z" fill="#0C0B0B" stroke="#0C0B0B"/>
</svg>
