<svg width="69" height="30" viewBox="0 0 69 30" fill="none" xmlns="http://www.w3.org/2000/svg">
<path d="M13.432 7.534C13.432 7.03 13.534 6.589 13.738 6.211C13.942 5.827 14.221 5.533 14.575 5.329C14.935 5.119 15.34 5.014 15.79 5.014C16.222 5.014 16.612 5.119 16.96 5.329C17.308 5.539 17.563 5.812 17.725 6.148V3.34H18.355V10H17.725V8.902C17.575 9.244 17.329 9.526 16.987 9.748C16.645 9.964 16.243 10.072 15.781 10.072C15.331 10.072 14.926 9.967 14.566 9.757C14.212 9.547 13.933 9.25 13.729 8.866C13.531 8.482 13.432 8.038 13.432 7.534ZM17.725 7.543C17.725 7.147 17.644 6.799 17.482 6.499C17.32 6.199 17.098 5.968 16.816 5.806C16.54 5.644 16.234 5.563 15.898 5.563C15.55 5.563 15.238 5.641 14.962 5.797C14.686 5.953 14.467 6.181 14.305 6.481C14.149 6.775 14.071 7.126 14.071 7.534C14.071 7.936 14.149 8.29 14.305 8.596C14.467 8.896 14.686 9.127 14.962 9.289C15.238 9.445 15.55 9.523 15.898 9.523C16.234 9.523 16.54 9.442 16.816 9.28C17.098 9.118 17.32 8.887 17.482 8.587C17.644 8.287 17.725 7.939 17.725 7.543ZM20.4232 5.959C20.5612 5.653 20.7712 5.416 21.0532 5.248C21.3412 5.08 21.6922 4.996 22.1062 4.996V5.653H21.9352C21.4792 5.653 21.1132 5.776 20.8372 6.022C20.5612 6.268 20.4232 6.679 20.4232 7.255V10H19.7932V5.086H20.4232V5.959ZM25.205 10.072C24.743 10.072 24.326 9.97 23.954 9.766C23.588 9.556 23.297 9.262 23.081 8.884C22.871 8.5 22.766 8.053 22.766 7.543C22.766 7.033 22.874 6.589 23.09 6.211C23.306 5.827 23.6 5.533 23.972 5.329C24.344 5.119 24.761 5.014 25.223 5.014C25.685 5.014 26.102 5.119 26.474 5.329C26.852 5.533 27.146 5.827 27.356 6.211C27.572 6.589 27.68 7.033 27.68 7.543C27.68 8.047 27.572 8.491 27.356 8.875C27.14 9.259 26.843 9.556 26.465 9.766C26.087 9.97 25.667 10.072 25.205 10.072ZM25.205 9.523C25.529 9.523 25.829 9.451 26.105 9.307C26.381 9.157 26.603 8.935 26.771 8.641C26.945 8.341 27.032 7.975 27.032 7.543C27.032 7.111 26.948 6.748 26.78 6.454C26.612 6.154 26.39 5.932 26.114 5.788C25.838 5.638 25.538 5.563 25.214 5.563C24.89 5.563 24.59 5.638 24.314 5.788C24.038 5.932 23.816 6.154 23.648 6.454C23.486 6.748 23.405 7.111 23.405 7.543C23.405 7.975 23.486 8.341 23.648 8.641C23.816 8.935 24.035 9.157 24.305 9.307C24.581 9.451 24.881 9.523 25.205 9.523ZM29.4494 6.166C29.6054 5.836 29.8514 5.563 30.1874 5.347C30.5294 5.125 30.9344 5.014 31.4024 5.014C31.8464 5.014 32.2454 5.119 32.5994 5.329C32.9594 5.533 33.2384 5.827 33.4364 6.211C33.6404 6.589 33.7424 7.03 33.7424 7.534C33.7424 8.038 33.6404 8.482 33.4364 8.866C33.2384 9.25 32.9594 9.547 32.5994 9.757C32.2454 9.967 31.8464 10.072 31.4024 10.072C30.9404 10.072 30.5384 9.964 30.1964 9.748C29.8544 9.526 29.6054 9.25 29.4494 8.92V12.322H28.8284V5.086H29.4494V6.166ZM33.1034 7.534C33.1034 7.126 33.0224 6.775 32.8604 6.481C32.7044 6.181 32.4884 5.953 32.2124 5.797C31.9364 5.641 31.6244 5.563 31.2764 5.563C30.9404 5.563 30.6314 5.644 30.3494 5.806C30.0734 5.968 29.8544 6.199 29.6924 6.499C29.5304 6.799 29.4494 7.147 29.4494 7.543C29.4494 7.939 29.5304 8.287 29.6924 8.587C29.8544 8.887 30.0734 9.118 30.3494 9.28C30.6314 9.442 30.9404 9.523 31.2764 9.523C31.6244 9.523 31.9364 9.445 32.2124 9.289C32.4884 9.127 32.7044 8.896 32.8604 8.596C33.0224 8.29 33.1034 7.936 33.1034 7.534ZM39.5224 10.072C39.0604 10.072 38.6434 9.97 38.2714 9.766C37.9054 9.556 37.6144 9.262 37.3984 8.884C37.1884 8.5 37.0834 8.053 37.0834 7.543C37.0834 7.033 37.1914 6.589 37.4074 6.211C37.6234 5.827 37.9174 5.533 38.2894 5.329C38.6614 5.119 39.0784 5.014 39.5404 5.014C40.0024 5.014 40.4194 5.119 40.7914 5.329C41.1694 5.533 41.4634 5.827 41.6734 6.211C41.8894 6.589 41.9974 7.033 41.9974 7.543C41.9974 8.047 41.8894 8.491 41.6734 8.875C41.4574 9.259 41.1604 9.556 40.7824 9.766C40.4044 9.97 39.9844 10.072 39.5224 10.072ZM39.5224 9.523C39.8464 9.523 40.1464 9.451 40.4224 9.307C40.6984 9.157 40.9204 8.935 41.0884 8.641C41.2624 8.341 41.3494 7.975 41.3494 7.543C41.3494 7.111 41.2654 6.748 41.0974 6.454C40.9294 6.154 40.7074 5.932 40.4314 5.788C40.1554 5.638 39.8554 5.563 39.5314 5.563C39.2074 5.563 38.9074 5.638 38.6314 5.788C38.3554 5.932 38.1334 6.154 37.9654 6.454C37.8034 6.748 37.7224 7.111 37.7224 7.543C37.7224 7.975 37.8034 8.341 37.9654 8.641C38.1334 8.935 38.3524 9.157 38.6224 9.307C38.8984 9.451 39.1984 9.523 39.5224 9.523ZM45.0808 5.617H43.9378V10H43.3078V5.617H42.6238V5.086H43.3078V4.744C43.3078 4.21 43.4428 3.817 43.7128 3.565C43.9888 3.313 44.4328 3.187 45.0448 3.187V3.727C44.6368 3.727 44.3488 3.805 44.1808 3.961C44.0188 4.117 43.9378 4.378 43.9378 4.744V5.086H45.0808V5.617ZM48.0075 5.617H46.8645V10H46.2345V5.617H45.5505V5.086H46.2345V4.744C46.2345 4.21 46.3695 3.817 46.6395 3.565C46.9155 3.313 47.3595 3.187 47.9715 3.187V3.727C47.5635 3.727 47.2755 3.805 47.1075 3.961C46.9455 4.117 46.8645 4.378 46.8645 4.744V5.086H48.0075V5.617Z" fill="#121900"/>
<path d="M67.1257 18.6711H1" stroke="black" stroke-width="2" stroke-linecap="round" stroke-linejoin="round"/>
<path d="M67.1263 18.6711L56.9531 28.3423" stroke="black" stroke-width="2" stroke-linecap="round" stroke-linejoin="round"/>
<path d="M67.1263 18.6712L56.9531 9" stroke="black" stroke-width="2" stroke-linecap="round" stroke-linejoin="round"/>
</svg>
