<svg width="12" height="18" viewBox="0 0 12 18" fill="none" xmlns="http://www.w3.org/2000/svg">
<path d="M6 0.25C8.89062 0.25 11.2422 2.54297 11.2422 5.43359C11.2422 6.07422 11.1055 6.77344 10.8594 7.40234H10.8633L10.8398 7.44922C10.8203 7.49219 10.8008 7.53516 10.7812 7.57812L6 17.75L1.24219 7.62891L1.21875 7.58203C1.19922 7.53906 1.17578 7.49609 1.15625 7.44922L1.14063 7.40625C0.88672 6.77734 0.757812 6.11328 0.757812 5.44141C0.757812 2.54297 3.10938 0.25 6 0.25ZM1.73828 7.17969L1.74609 7.19922C1.75781 7.22266 1.76953 7.25 1.78125 7.27344L1.82031 7.35547L6 16.2383L10.1836 7.35547L10.2188 7.27734C10.2305 7.25391 10.2422 7.23047 10.25 7.20703C10.4805 6.64062 10.6055 6.01172 10.6055 5.43359C10.6055 2.89453 8.53906 0.882812 5.99609 0.882812C3.45312 0.882812 1.38672 2.89062 1.38672 5.43359C1.39062 6.02734 1.50781 6.61328 1.73828 7.17969Z" fill="black"/>
<path d="M6 2.75C7.37891 2.75 8.5 3.87109 8.5 5.25C8.5 6.62891 7.37891 7.75 6 7.75C4.62109 7.75 3.5 6.62891 3.5 5.25C3.5 3.87109 4.62109 2.75 6 2.75ZM6 7.08203C7.01172 7.08203 7.83203 6.26172 7.83203 5.25C7.83203 4.23828 7.01172 3.41797 6 3.41797C4.98828 3.41797 4.16797 4.23828 4.16797 5.25C4.16797 6.26172 4.98828 7.08203 6 7.08203Z" fill="black"/>
</svg>
