<svg width="69" height="29" viewBox="0 0 69 29" fill="none" xmlns="http://www.w3.org/2000/svg">
<path d="M9.341 6.166C9.497 5.836 9.743 5.563 10.079 5.347C10.421 5.125 10.826 5.014 11.294 5.014C11.738 5.014 12.137 5.119 12.491 5.329C12.851 5.533 13.13 5.827 13.328 6.211C13.532 6.589 13.634 7.03 13.634 7.534C13.634 8.038 13.532 8.482 13.328 8.866C13.13 9.25 12.851 9.547 12.491 9.757C12.137 9.967 11.738 10.072 11.294 10.072C10.832 10.072 10.43 9.964 10.088 9.748C9.746 9.526 9.497 9.25 9.341 8.92V12.322H8.72V5.086H9.341V6.166ZM12.995 7.534C12.995 7.126 12.914 6.775 12.752 6.481C12.596 6.181 12.38 5.953 12.104 5.797C11.828 5.641 11.516 5.563 11.168 5.563C10.832 5.563 10.523 5.644 10.241 5.806C9.965 5.968 9.746 6.199 9.584 6.499C9.422 6.799 9.341 7.147 9.341 7.543C9.341 7.939 9.422 8.287 9.584 8.587C9.746 8.887 9.965 9.118 10.241 9.28C10.523 9.442 10.832 9.523 11.168 9.523C11.516 9.523 11.828 9.445 12.104 9.289C12.38 9.127 12.596 8.896 12.752 8.596C12.914 8.29 12.995 7.936 12.995 7.534ZM15.1082 4.159C14.9822 4.159 14.8742 4.114 14.7842 4.024C14.6942 3.934 14.6492 3.823 14.6492 3.691C14.6492 3.559 14.6942 3.451 14.7842 3.367C14.8742 3.277 14.9822 3.232 15.1082 3.232C15.2342 3.232 15.3422 3.277 15.4322 3.367C15.5222 3.451 15.5672 3.559 15.5672 3.691C15.5672 3.823 15.5222 3.934 15.4322 4.024C15.3422 4.114 15.2342 4.159 15.1082 4.159ZM15.4232 5.086V10H14.7932V5.086H15.4232ZM16.5619 7.543C16.5619 7.033 16.6639 6.589 16.8679 6.211C17.0719 5.827 17.3539 5.533 17.7139 5.329C18.0739 5.119 18.4849 5.014 18.9469 5.014C19.5529 5.014 20.0509 5.164 20.4409 5.464C20.8369 5.764 21.0919 6.172 21.2059 6.688H20.5309C20.4469 6.334 20.2639 6.058 19.9819 5.86C19.7059 5.656 19.3609 5.554 18.9469 5.554C18.6169 5.554 18.3199 5.629 18.0559 5.779C17.7919 5.929 17.5819 6.154 17.4259 6.454C17.2759 6.748 17.2009 7.111 17.2009 7.543C17.2009 7.975 17.2759 8.341 17.4259 8.641C17.5819 8.941 17.7919 9.166 18.0559 9.316C18.3199 9.466 18.6169 9.541 18.9469 9.541C19.3609 9.541 19.7059 9.442 19.9819 9.244C20.2639 9.04 20.4469 8.758 20.5309 8.398H21.2059C21.0919 8.902 20.8369 9.307 20.4409 9.613C20.0449 9.919 19.5469 10.072 18.9469 10.072C18.4849 10.072 18.0739 9.97 17.7139 9.766C17.3539 9.556 17.0719 9.262 16.8679 8.884C16.6639 8.5 16.5619 8.053 16.5619 7.543ZM25.0244 10L22.9994 7.795V10H22.3694V3.34H22.9994V7.282L24.9794 5.086H25.8614L23.5304 7.534L25.8794 10H25.0244ZM31.0984 5.617H29.9554V10H29.3254V5.617H28.6414V5.086H29.3254V4.744C29.3254 4.21 29.4604 3.817 29.7304 3.565C30.0064 3.313 30.4504 3.187 31.0624 3.187V3.727C30.6544 3.727 30.3664 3.805 30.1984 3.961C30.0364 4.117 29.9554 4.378 29.9554 4.744V5.086H31.0984V5.617ZM32.7201 5.959C32.8581 5.653 33.0681 5.416 33.3501 5.248C33.6381 5.08 33.9891 4.996 34.4031 4.996V5.653H34.2321C33.7761 5.653 33.4101 5.776 33.1341 6.022C32.8581 6.268 32.7201 6.679 32.7201 7.255V10H32.0901V5.086H32.7201V5.959ZM37.5019 10.072C37.0399 10.072 36.6229 9.97 36.2509 9.766C35.8849 9.556 35.5939 9.262 35.3779 8.884C35.1679 8.5 35.0629 8.053 35.0629 7.543C35.0629 7.033 35.1709 6.589 35.3869 6.211C35.6029 5.827 35.8969 5.533 36.2689 5.329C36.6409 5.119 37.0579 5.014 37.5199 5.014C37.9819 5.014 38.3989 5.119 38.7709 5.329C39.1489 5.533 39.4429 5.827 39.6529 6.211C39.8689 6.589 39.9769 7.033 39.9769 7.543C39.9769 8.047 39.8689 8.491 39.6529 8.875C39.4369 9.259 39.1399 9.556 38.7619 9.766C38.3839 9.97 37.9639 10.072 37.5019 10.072ZM37.5019 9.523C37.8259 9.523 38.1259 9.451 38.4019 9.307C38.6779 9.157 38.8999 8.935 39.0679 8.641C39.2419 8.341 39.3289 7.975 39.3289 7.543C39.3289 7.111 39.2449 6.748 39.0769 6.454C38.9089 6.154 38.6869 5.932 38.4109 5.788C38.1349 5.638 37.8349 5.563 37.5109 5.563C37.1869 5.563 36.8869 5.638 36.6109 5.788C36.3349 5.932 36.1129 6.154 35.9449 6.454C35.7829 6.748 35.7019 7.111 35.7019 7.543C35.7019 7.975 35.7829 8.341 35.9449 8.641C36.1129 8.935 36.3319 9.157 36.6019 9.307C36.8779 9.451 37.1779 9.523 37.5019 9.523ZM46.9753 4.996C47.5513 4.996 48.0193 5.179 48.3793 5.545C48.7453 5.905 48.9283 6.43 48.9283 7.12V10H48.3073V7.192C48.3073 6.658 48.1783 6.25 47.9203 5.968C47.6623 5.686 47.3113 5.545 46.8673 5.545C46.4053 5.545 46.0363 5.698 45.7603 6.004C45.4843 6.31 45.3463 6.754 45.3463 7.336V10H44.7253V7.192C44.7253 6.658 44.5963 6.25 44.3383 5.968C44.0803 5.686 43.7263 5.545 43.2763 5.545C42.8143 5.545 42.4453 5.698 42.1693 6.004C41.8933 6.31 41.7553 6.754 41.7553 7.336V10H41.1253V5.086H41.7553V5.932C41.9113 5.626 42.1333 5.395 42.4213 5.239C42.7093 5.077 43.0303 4.996 43.3843 4.996C43.8103 4.996 44.1823 5.098 44.5003 5.302C44.8243 5.506 45.0583 5.806 45.2023 6.202C45.3343 5.812 45.5593 5.515 45.8773 5.311C46.2013 5.101 46.5673 4.996 46.9753 4.996Z" fill="#121900"/>
<path d="M67.1257 17.6711H1" stroke="black" stroke-width="2" stroke-linecap="round" stroke-linejoin="round"/>
<path d="M67.1263 17.6711L56.9531 27.3423" stroke="black" stroke-width="2" stroke-linecap="round" stroke-linejoin="round"/>
<path d="M67.1263 17.6712L56.9531 8" stroke="black" stroke-width="2" stroke-linecap="round" stroke-linejoin="round"/>
</svg>
