<svg width="16" height="16" viewBox="0 0 16 16" fill="none" xmlns="http://www.w3.org/2000/svg">
<path d="M15.1479 14.3521L11.6273 10.8322C12.6477 9.60718 13.1566 8.03589 13.048 6.44524C12.9394 4.85459 12.2217 3.36705 11.0443 2.29205C9.86684 1.21705 8.32029 0.637373 6.72635 0.673598C5.13241 0.709823 3.6138 1.35916 2.48642 2.48654C1.35904 3.61392 0.709701 5.13253 0.673476 6.72647C0.637251 8.32041 1.21693 9.86696 2.29193 11.0444C3.36692 12.2218 4.85447 12.9395 6.44512 13.0481C8.03577 13.1567 9.60705 12.6479 10.8321 11.6275L14.3519 15.148C14.4042 15.2003 14.4663 15.2417 14.5345 15.27C14.6028 15.2983 14.676 15.3129 14.7499 15.3129C14.8238 15.3129 14.897 15.2983 14.9653 15.27C15.0336 15.2417 15.0956 15.2003 15.1479 15.148C15.2001 15.0957 15.2416 15.0337 15.2699 14.9654C15.2982 14.8971 15.3127 14.8239 15.3127 14.75C15.3127 14.6761 15.2982 14.6029 15.2699 14.5347C15.2416 14.4664 15.2001 14.4043 15.1479 14.3521ZM1.81242 6.87504C1.81242 5.87377 2.10933 4.89499 2.6656 4.06246C3.22188 3.22994 4.01253 2.58107 4.93758 2.1979C5.86263 1.81473 6.88053 1.71448 7.86256 1.90981C8.84459 2.10515 9.74664 2.58731 10.4546 3.29531C11.1626 4.00331 11.6448 4.90536 11.8401 5.88739C12.0355 6.86942 11.9352 7.88732 11.5521 8.81237C11.1689 9.73742 10.52 10.5281 9.68749 11.0844C8.85497 11.6406 7.87618 11.9375 6.87492 11.9375C5.53271 11.9361 4.24591 11.4022 3.29683 10.4531C2.34775 9.50404 1.81391 8.21724 1.81242 6.87504Z" fill="white"/>
</svg>
