<svg width="20" height="20" viewBox="0 0 20 20" fill="none" xmlns="http://www.w3.org/2000/svg">
<path d="M13.4516 2.4667L5.92656 4.9667C0.868229 6.65837 0.868229 9.4167 5.92656 11.1L8.1599 11.8417L8.90156 14.075C10.5849 19.1334 13.3516 19.1334 15.0349 14.075L17.5432 6.55837C18.6599 3.18337 16.8266 1.3417 13.4516 2.4667ZM13.7182 6.95004L10.5516 10.1334C10.4266 10.2584 10.2682 10.3167 10.1099 10.3167C9.95156 10.3167 9.79323 10.2584 9.66823 10.1334C9.42656 9.8917 9.42656 9.4917 9.66823 9.25004L12.8349 6.0667C13.0766 5.82504 13.4766 5.82504 13.7182 6.0667C13.9599 6.30837 13.9599 6.70837 13.7182 6.95004Z" fill="white"/>
</svg>
