<svg width="34" height="34" viewBox="0 0 34 34" fill="none" xmlns="http://www.w3.org/2000/svg">
<path d="M29.3214 23.3276V10.6724C29.3204 10.4897 29.2713 10.3103 29.1789 10.1526C29.0865 9.99487 28.9541 9.86428 28.7952 9.77401L17.5005 3.42078C17.3484 3.33291 17.1757 3.28665 17 3.28665C16.8243 3.28665 16.6516 3.33291 16.4994 3.42078L5.20479 9.77401C5.04583 9.86428 4.91348 9.99487 4.82109 10.1526C4.7287 10.3103 4.67954 10.4897 4.67856 10.6724V23.3276C4.67954 23.5104 4.7287 23.6897 4.82109 23.8474C4.91348 24.0052 5.04583 24.1358 5.20479 24.226L16.4994 30.5793C16.6516 30.6671 16.8243 30.7134 17 30.7134C17.1757 30.7134 17.3484 30.6671 17.5005 30.5793L28.7952 24.226C28.9541 24.1358 29.0865 24.0052 29.1789 23.8474C29.2713 23.6897 29.3204 23.5104 29.3214 23.3276V23.3276Z" stroke="#F63B3B" stroke-width="2.05357" stroke-linecap="round" stroke-linejoin="round"/>
<path d="M29.1803 10.1462L17.1155 17L4.81976 10.1462" stroke="#F63B3B" stroke-width="2.05357" stroke-linecap="round" stroke-linejoin="round"/>
<path d="M17.1155 17L17 30.7076" stroke="#F63B3B" stroke-width="2.05357" stroke-linecap="round" stroke-linejoin="round"/>
</svg>
