<svg width="40" height="40" viewBox="0 0 40 40" fill="none" xmlns="http://www.w3.org/2000/svg">
<rect x="39" y="39" width="38" height="38" rx="19" transform="rotate(-180 39 39)" stroke="#0C0B0B" stroke-width="2"/>
<path d="M19.7721 14.6666L19.7721 13.4595L18.9185 14.3131L15.5081 17.7235L15.8617 18.077L15.5081 17.7235C15.4196 17.812 15.276 17.812 15.1875 17.7235C15.099 17.6349 15.099 17.4913 15.1875 17.4028L19.8384 12.7518C19.927 12.6633 20.0705 12.6633 20.1591 12.7518L20.5126 12.3983L20.1591 12.7518L24.8099 17.4026C24.8544 17.4471 24.8765 17.5044 24.8765 17.563C24.8765 17.6217 24.8544 17.6789 24.8101 17.7233C24.7215 17.8119 24.578 17.8119 24.4894 17.7233L24.4894 17.7233L21.079 14.3131L20.2255 13.4595L20.2255 14.6666L20.2255 27.0879C20.2255 27.213 20.1239 27.3146 19.9988 27.3146C19.8736 27.3146 19.7721 27.213 19.7721 27.0879L19.7721 14.6666Z" fill="#0C0B0B" stroke="#0C0B0B"/>
</svg>
